<svg data-v-0dd9719b="" version="1.0" xmlns="http://www.w3.org/2000/svg" xmlns:xlink="http://www.w3.org/1999/xlink" width="100%" height="100%" viewBox="0 0 340.000000 250.000000" preserveAspectRatio="xMidYMid meet" color-interpolation-filters="sRGB" style="margin: auto;"> <rect data-v-0dd9719b="" x="0" y="0" width="100%" height="100%" fill="#fff" fill-opacity="1" class="background"></rect> <!----> <g data-v-0dd9719b="" fill="#000000" class="icon-text-wrapper icon-svg-group iconsvg" transform="translate(47.263397216796875,94.99999809265137)"><g class="iconsvg-imagesvg" transform="translate(0,0)"><g><rect fill="#000000" fill-opacity="0" stroke-width="2" x="0" y="0" width="60" height="60" class="image-rect"></rect> <svg x="0" y="0" width="60" height="60" filtersec="colorsb5340464102" class="image-svg-svg primary" style="overflow: visible;"><svg fill="#000000" xmlns="http://www.w3.org/2000/svg" xmlns:xlink="http://www.w3.org/1999/xlink" version="1.1" x="0px" y="0px" viewBox="3.299999952316284 3.299999952316284 93.39999389648438 93.39999389648438" style="enable-background:new 0 0 100 100;" xml:space="preserve"><g><path d="M40,50c0-2.4,0.9-4.6,2.3-6.4c-3.5-1.7-7.3-4.7-11.7-9.4c-1.2-1.2-2.5-2.2-3.5-3.5L3.3,50l23.7,19.2c1-0.7,2.3-2.3,3.5-3.5   c4.5-4.6,8.5-7.5,12-9.1C41,54.9,40,52.5,40,50z"></path><path d="M34.2,30.6c4.6,4.5,7.4,8.5,9.1,12C45.1,41,47.4,40,50,40c2.4,0,4.6,0.9,6.4,2.3c1.7-3.5,4.7-7.3,9.4-11.7   c1.2-1.2,2.2-2.5,3.5-3.5L50,3.3L30.8,27.1C31.5,28,33.1,29.4,34.2,30.6z"></path><path d="M72.9,30.8c-1,1.2-2.2,2.4-3.5,3.5c-4,3.3-7.8,6.9-11.9,9.2c1.5,1.8,2.4,4,2.4,6.5c0,2.6-1,4.9-2.6,6.7   c4.2,2.1,8,5.8,12,9.1c1.3,1.1,2.5,2.2,3.5,3.5L96.7,50L72.9,30.8z"></path><path d="M65.8,69.4c-3.3-4-6.9-7.8-9.2-11.9c-1.8,1.5-4,2.4-6.5,2.4c-2.6,0-4.9-1-6.7-2.6c-2.1,4.2-5.7,8-9,12   c-1.1,1.3-2.2,2.5-3.5,3.5L50,96.7l19.2-23.7C68,71.9,66.8,70.8,65.8,69.4z"></path></g></svg></svg> <!----></g></g> <g transform="translate(67.00000381469727,13.897001266479492)"><g data-gra="path-name" fill-rule="" class="tp-name iconsvg-namesvg" transform="translate(0,0)"><g transform="scale(1)"><g><path d="M4.22-2.17C4.22-1.78 4.03-1.67 3.66-1.63L2.64-1.57 2.64 0 8.1 0 8.1-1.65 6.57-1.71 6.57-10.97 7.89-10.97C8.41-10.97 8.45-10.74 8.45-10.37L8.45-9.46 10.43-9.59 10.43-12.89 0.29-12.89 0.29-9.59 2.27-9.46 2.27-10.37C2.27-10.7 2.31-10.97 2.71-10.97L4.22-10.97ZM12.54-2.17C12.54-1.69 12.34-1.57 11.98-1.53L11.34-1.47 11.34 0 15.95 0 15.95-1.55 14.84-1.61 14.84-6.3C14.84-7.31 15.56-8.26 16.92-8.26 18.16-8.26 18.43-7.34 18.43-6.16L18.43-2.17C18.43-1.69 18.24-1.57 17.87-1.53L17.23-1.47 17.23 0 21.84 0 21.84-1.55 20.74-1.61 20.74-6.67C20.74-8.95 19.59-10.04 17.66-10.04 16.38-10.04 15.41-9.44 14.83-8.6L14.83-13.82 11.38-13.82 11.38-12.21 12.05-12.17C12.42-12.15 12.54-12.03 12.54-11.61ZM27.85-10.04C24.67-10.04 23.06-7.52 23.06-4.65 23.06-1.76 24.34 0.25 27.64 0.25 29.46 0.25 30.74-0.56 31.05-0.83L30.31-2.4C29.84-2.07 29.01-1.55 27.87-1.55 26.22-1.55 25.56-2.58 25.48-3.84 27.77-3.86 31.01-4.36 31.01-7.34 31.01-9.07 29.75-10.04 27.85-10.04ZM28.88-7.31C28.88-5.81 26.84-5.48 25.41-5.47 25.47-6.9 26.16-8.39 27.71-8.39 28.41-8.39 28.88-8.02 28.88-7.31ZM36.26 0L41.76 0C44.88 0 47.71-1.82 47.71-6.9 47.71-10.93 45.37-12.89 41.67-12.89L36.36-12.89 36.36-11.24 37.46-11.18 37.46-2.17C37.46-1.78 37.23-1.67 36.9-1.63L36.26-1.57ZM39.83-11.01L41.55-11.01C43.64-11.01 45.33-10.04 45.33-6.55 45.33-3.45 43.97-1.86 41.8-1.86L39.83-1.86ZM52.64-9.75L49.17-9.75 49.17-8.14 49.84-8.1C50.21-8.1 50.33-7.97 50.33-7.54L50.33-2.15C50.33-1.69 50.12-1.57 49.77-1.53L49.13-1.47 49.13 0 53.74 0 53.74-1.55 52.64-1.61ZM49.79-12.44C49.79-11.63 50.37-11.03 51.26-11.03 52.13-11.03 52.75-11.63 52.75-12.44 52.75-13.26 52.13-13.9 51.28-13.9 50.37-13.9 49.79-13.26 49.79-12.44ZM59.01 4.15C61.92 4.15 63.26 2.83 63.49-0.02 63.55-0.72 63.53-1.45 63.53-2.13L63.53-9.32C62.38-9.81 60.87-10.04 59.94-10.04 57.02-10.04 54.9-8.39 54.9-4.88 54.9-2.67 55.87-0.35 58.7-0.35 59.65-0.35 60.62-0.66 61.28-1.43L61.28-0.37C61.28 1.26 60.81 2.48 59.03 2.48 58.45 2.48 58.02 2.42 57.66 2.29 57.31 2.15 57.21 1.96 57.21 1.59L57.21 0.66 55.37 0.81 55.37 3.51C56.18 3.91 57.79 4.15 59.01 4.15ZM61.28-3.95C61.28-2.77 60.39-2.05 59.3-2.05 57.5-2.05 57.29-3.8 57.29-5.12 57.29-7.07 58.12-8.35 59.73-8.35 60.27-8.35 60.83-8.28 61.28-8.12ZM68.91-9.75L65.45-9.75 65.45-8.14 66.12-8.1C66.49-8.1 66.61-7.97 66.61-7.54L66.61-2.15C66.61-1.69 66.4-1.57 66.05-1.53L65.41-1.47 65.41 0 70.02 0 70.02-1.55 68.91-1.61ZM66.07-12.44C66.07-11.63 66.65-11.03 67.54-11.03 68.41-11.03 69.03-11.63 69.03-12.44 69.03-13.26 68.41-13.9 67.56-13.9 66.65-13.9 66.07-13.26 66.07-12.44ZM73.29-11.8C72.89-10.7 72.42-9.65 71.07-9.53L70.87-8.12 72.25-8.12 72.25-2.95C72.25-1.59 72.23 0.27 75.25 0.27 76.16 0.27 77.13 0 77.71-0.41L77.13-1.9C76.82-1.71 76.34-1.49 75.81-1.49 75.02-1.49 74.55-1.84 74.55-3.02L74.55-8.12 76.94-8.12 77.13-9.75 74.55-9.75 74.55-11.8ZM87.15-9.36C85.76-9.88 84.34-10.04 83.7-10.04 80.21-10.04 78.59-7.87 78.59-4.46 78.59-1.69 79.73 0.25 82.46 0.25 83.53 0.25 84.52-0.27 85.12-1.14L85.17-1.12 85.17 0 88.26 0 88.26-1.55 87.64-1.59C87.27-1.61 87.15-1.72 87.15-2.15ZM84.9-3.08C84.9-2.25 84.17-1.4 82.97-1.4 81.34-1.4 80.95-2.93 80.95-4.53 80.95-6.63 81.57-8.35 83.41-8.35 84.01-8.35 84.61-8.24 84.9-8.1ZM92.91-13.82L89.44-13.82 89.44-12.21 90.12-12.17C90.41-12.15 90.6-12.05 90.6-11.71L90.6-2.15C90.6-1.69 90.39-1.57 90.04-1.53L89.4-1.47 89.4 0 94.01 0 94.01-1.55 92.91-1.61ZM106.57-11.05C106.92-10.93 106.98-10.78 106.98-10.41L106.98-8.9 108.95-9.03 108.95-12.33C107.79-12.87 106.45-13.12 105.31-13.12 102.33-13.12 99.22-11.43 99.22-6.38 99.22-1.96 101.38 0.25 105.31 0.25 106.55 0.25 108.08 0.02 109.15-0.54L109.15-3.9 107.17-4.03 107.17-2.48C107.17-2.11 107.11-1.96 106.76-1.84 106.4-1.72 105.89-1.67 105.35-1.67 102.66-1.61 101.65-3.49 101.65-6.53 101.65-9.46 102.87-11.2 105.31-11.2 105.7-11.2 106.2-11.16 106.57-11.05ZM115.21-1.41C113.35-1.41 113.1-3.35 113.1-5.16 113.1-7.02 113.72-8.33 115.25-8.33 116.8-8.33 117.33-7 117.33-4.83 117.33-2.81 116.72-1.41 115.21-1.41ZM110.76-4.88C110.76-1.38 112.46 0.29 115.06 0.29 117.62 0.29 119.69-1.41 119.69-5.14 119.69-9.59 116.8-10.04 115.37-10.04 113.37-10.04 110.76-8.91 110.76-4.88ZM129.69-9.36C128.29-9.88 126.88-10.04 126.24-10.04 122.75-10.04 121.12-7.87 121.12-4.46 121.12-1.69 122.27 0.25 125 0.25 126.07 0.25 127.05-0.27 127.66-1.14L127.71-1.12 127.71 0 130.79 0 130.79-1.55 130.17-1.59C129.81-1.61 129.69-1.72 129.69-2.15ZM127.44-3.08C127.44-2.25 126.71-1.4 125.5-1.4 123.88-1.4 123.49-2.93 123.49-4.53 123.49-6.63 124.11-8.35 125.95-8.35 126.55-8.35 127.15-8.24 127.44-8.1ZM136.82-1.51C135.1-1.51 134.32-2.87 134.32-4.98 134.32-7.13 135.12-8.29 136.67-8.29 136.96-8.29 137.19-8.26 137.42-8.18 137.77-8.06 137.83-7.89 137.83-7.52L137.83-6.59 139.61-6.72 139.61-9.24C138.68-9.75 137.75-10.04 136.59-10.04 134.4-10.04 131.98-8.68 131.98-4.75 131.98-1.53 133.66 0.27 136.51 0.27 137.95 0.27 139.13-0.23 139.88-0.85L139.05-2.34C138.26-1.76 137.58-1.51 136.82-1.51ZM142.29-2.17C142.29-1.69 142.09-1.57 141.72-1.53L141.09-1.47 141.09 0 145.7 0 145.7-1.55 144.59-1.61 144.59-6.3C144.59-7.31 145.31-8.26 146.67-8.26 147.91-8.26 148.18-7.34 148.18-6.16L148.18-2.17C148.18-1.69 147.98-1.57 147.62-1.53L146.98-1.47 146.98 0 151.59 0 151.59-1.55 150.48-1.61 150.48-6.67C150.48-8.95 149.34-10.04 147.4-10.04 146.12-10.04 145.16-9.44 144.57-8.6L144.57-13.82 141.12-13.82 141.12-12.21 141.8-12.17C142.17-12.15 142.29-12.03 142.29-11.61ZM156.24-9.75L152.77-9.75 152.77-8.14 153.45-8.1C153.82-8.1 153.93-7.97 153.93-7.54L153.93-2.15C153.93-1.69 153.72-1.57 153.37-1.53L152.73-1.47 152.73 0 157.34 0 157.34-1.55 156.24-1.61ZM153.39-12.44C153.39-11.63 153.97-11.03 154.86-11.03 155.74-11.03 156.36-11.63 156.36-12.44 156.36-13.26 155.74-13.9 154.88-13.9 153.97-13.9 153.39-13.26 153.39-12.44ZM158.35-8.2L159.17-8.14C159.52-8.12 159.65-7.97 159.65-7.54L159.65-2.17C159.65-1.69 159.46-1.57 159.09-1.53L158.45-1.47 158.45 0 163.06 0 163.06-1.55 161.96-1.61 161.96-6.3C161.96-7.31 162.67-8.26 163.95-8.26 165.27-8.26 165.54-7.44 165.54-6.16L165.54-2.17C165.54-1.69 165.35-1.57 164.98-1.53L164.34-1.47 164.34 0 168.95 0 168.95-1.55 167.85-1.61 167.85-6.67C167.85-8.95 166.71-10.04 164.77-10.04 163.49-10.04 162.31-9.46 161.63-8.49L161.63-9.75 158.35-9.75ZM174.24 4.15C177.15 4.15 178.49 2.83 178.72-0.02 178.78-0.72 178.76-1.45 178.76-2.13L178.76-9.32C177.62-9.81 176.1-10.04 175.17-10.04 172.25-10.04 170.14-8.39 170.14-4.88 170.14-2.67 171.1-0.35 173.93-0.35 174.88-0.35 175.85-0.66 176.51-1.43L176.51-0.37C176.51 1.26 176.05 2.48 174.26 2.48 173.68 2.48 173.26 2.42 172.89 2.29 172.54 2.15 172.44 1.96 172.44 1.59L172.44 0.66 170.6 0.81 170.6 3.51C171.41 3.91 173.02 4.15 174.24 4.15ZM176.51-3.95C176.51-2.77 175.62-2.05 174.53-2.05 172.73-2.05 172.52-3.8 172.52-5.12 172.52-7.07 173.35-8.35 174.96-8.35 175.5-8.35 176.07-8.28 176.51-8.12Z" transform="translate(-0.2900000214576721, 13.899999618530273)"></path></g> <!----> <!----> <!----> <!----> <!----> <!----> <!----></g></g> <g data-gra="path-slogan" fill-rule="" class="tp-slogan iconsvg-slogansvg" fill="#000000" transform="translate(5,24.05000114440918)"><rect x="0" height="1" y="3.580000877380371" width="37.2816047668457"></rect> <rect height="1" y="3.580000877380371" width="37.2816047668457" x="131.19160079956055"></rect> <g transform="translate(40.2816047668457,0)"><g transform="scale(1)"><path d="M1.08-7.87L1.08 0L5.52 0L5.52-0.85L2.08-0.85L2.08-7.87ZM6.91-7.87L6.91 0L11.57 0L11.57-0.85L7.91-0.85L7.91-3.71L10.90-3.71L10.90-4.56L7.91-4.56L7.91-7.03L11.45-7.03L11.45-7.87ZM16.58-3.20L14.22-3.20L14.59-4.40C14.74-4.84 14.87-5.28 15.00-5.72C15.13-6.15 15.25-6.60 15.37-7.06L15.42-7.06C15.55-6.60 15.68-6.15 15.80-5.72C15.93-5.28 16.07-4.84 16.21-4.40ZM16.84-2.40L17.58 0L18.65 0L15.98-7.87L14.86-7.87L12.19 0L13.21 0L13.97-2.40ZM20.76-4.14L20.76-7.07L22.08-7.07C22.70-7.07 23.17-6.96 23.50-6.76C23.82-6.55 23.99-6.18 23.99-5.66C23.99-5.15 23.82-4.77 23.50-4.52C23.17-4.27 22.70-4.14 22.08-4.14ZM24.08 0L25.21 0L23.22-3.43C23.76-3.57 24.18-3.82 24.50-4.19C24.82-4.56 24.98-5.05 24.98-5.66C24.98-6.07 24.92-6.42 24.78-6.70C24.64-6.98 24.45-7.20 24.21-7.38C23.97-7.56 23.67-7.68 23.33-7.76C22.99-7.83 22.62-7.87 22.22-7.87L19.76-7.87L19.76 0L20.76 0L20.76-3.32L22.19-3.32ZM26.74-7.87L26.74 0L27.68 0L27.68-4.12C27.68-4.53 27.67-4.95 27.64-5.36C27.61-5.77 27.58-6.18 27.55-6.58L27.60-6.58L28.45-4.96L31.31 0L32.34 0L32.34-7.87L31.39-7.87L31.39-3.80C31.39-3.39 31.41-2.97 31.43-2.54C31.46-2.11 31.49-1.70 31.51-1.30L31.46-1.30L30.61-2.93L27.77-7.87ZM37.92-4.14L37.92-7.07L39.24-7.07C39.86-7.07 40.33-6.96 40.66-6.76C40.98-6.55 41.15-6.18 41.15-5.66C41.15-5.15 40.98-4.77 40.66-4.52C40.33-4.27 39.86-4.14 39.24-4.14ZM41.24 0L42.37 0L40.38-3.43C40.92-3.57 41.34-3.82 41.66-4.19C41.98-4.56 42.14-5.05 42.14-5.66C42.14-6.07 42.08-6.42 41.94-6.70C41.80-6.98 41.61-7.20 41.37-7.38C41.13-7.56 40.83-7.68 40.49-7.76C40.15-7.83 39.78-7.87 39.38-7.87L36.92-7.87L36.92 0L37.92 0L37.92-3.32L39.35-3.32ZM43.90-7.87L43.90 0L48.55 0L48.55-0.85L44.89-0.85L44.89-3.71L47.88-3.71L47.88-4.56L44.89-4.56L44.89-7.03L48.43-7.03L48.43-7.87ZM50.22-7.87L50.22 0L51.14 0L51.14-4.33C51.14-4.68 51.13-5.07 51.10-5.50C51.06-5.92 51.04-6.31 51.01-6.66L51.06-6.66L51.68-4.91L53.21-0.79L53.77-0.79L55.28-4.91L55.92-6.66L55.97-6.66C55.94-6.31 55.91-5.92 55.88-5.50C55.85-5.07 55.84-4.68 55.84-4.33L55.84 0L56.78 0L56.78-7.87L55.61-7.87L54.10-3.65L53.54-2.04L53.50-2.04L52.92-3.65L51.40-7.87ZM61.85 0.14C62.34 0.14 62.80 0.05 63.21-0.14C63.62-0.34 63.98-0.61 64.28-0.97C64.58-1.32 64.81-1.75 64.97-2.26C65.14-2.77 65.22-3.34 65.22-3.97C65.22-4.60 65.14-5.16 64.97-5.66C64.81-6.16 64.58-6.58 64.28-6.93C63.98-7.28 63.62-7.55 63.21-7.73C62.80-7.92 62.34-8.02 61.85-8.02C61.35-8.02 60.90-7.92 60.49-7.74C60.07-7.56 59.72-7.29 59.42-6.94C59.13-6.59 58.90-6.17 58.73-5.67C58.57-5.17 58.49-4.60 58.49-3.97C58.49-3.34 58.57-2.77 58.73-2.26C58.90-1.75 59.13-1.32 59.42-0.97C59.72-0.61 60.07-0.34 60.49-0.14C60.90 0.05 61.35 0.14 61.85 0.14ZM61.85-0.73C61.50-0.73 61.18-0.81 60.89-0.96C60.61-1.11 60.37-1.33 60.16-1.61C59.96-1.90 59.80-2.24 59.69-2.63C59.58-3.03 59.52-3.48 59.52-3.97C59.52-4.46 59.58-4.90 59.69-5.29C59.80-5.68 59.96-6.02 60.16-6.29C60.37-6.56 60.61-6.77 60.89-6.92C61.18-7.07 61.50-7.14 61.85-7.14C62.20-7.14 62.52-7.07 62.80-6.92C63.09-6.77 63.33-6.56 63.53-6.29C63.74-6.02 63.90-5.68 64.01-5.29C64.12-4.90 64.18-4.46 64.18-3.97C64.18-3.48 64.12-3.03 64.01-2.63C63.90-2.24 63.74-1.90 63.53-1.61C63.33-1.33 63.09-1.11 62.80-0.96C62.52-0.81 62.20-0.73 61.85-0.73ZM68.30-7.03L68.30 0L69.31 0L69.31-7.03L71.69-7.03L71.69-7.87L65.93-7.87L65.93-7.03ZM73.10-7.87L73.10 0L77.76 0L77.76-0.85L74.10-0.85L74.10-3.71L77.09-3.71L77.09-4.56L74.10-4.56L74.10-7.03L77.64-7.03L77.64-7.87ZM79.43-7.87L79.43 0L83.87 0L83.87-0.85L80.42-0.85L80.42-7.87ZM85.62-3.05L85.62 0L86.63 0L86.63-3.05L88.99-7.87L87.95-7.87L86.94-5.65C86.82-5.36 86.69-5.08 86.56-4.80C86.42-4.52 86.28-4.23 86.15-3.94L86.10-3.94C85.96-4.23 85.84-4.52 85.72-4.80C85.60-5.08 85.47-5.36 85.34-5.65L84.32-7.87L83.26-7.87Z" transform="translate(-1.08, 8.016)"></path></g></g></g></g></g><defs v-gra="od"></defs></svg>